<svg width="167" height="19" viewBox="0 0 167 19" fill="none" xmlns="http://www.w3.org/2000/svg">
<path d="M9.88063 14.6878H6.09931L4.80434 11.909C4.62247 11.4702 4.37709 11.0599 4.07592 10.691C3.87988 10.5181 3.62255 10.4294 3.36045 10.4442V14.6878H0V3.93131H3.35074V8.06277C3.48104 8.06033 3.60933 8.03049 3.7271 7.97523C3.84487 7.91997 3.94942 7.84056 4.03383 7.74225C4.35381 7.22629 4.61031 6.67428 4.79787 6.098C4.96784 5.57771 5.22622 5.08994 5.5619 4.65568C5.89917 4.31611 6.33684 4.0916 6.81155 4.01465C7.71054 3.86245 8.62258 3.79911 9.53423 3.82554V6.098H9.36264C8.91349 6.06382 8.46541 6.17641 8.08709 6.41852C7.76822 6.6987 7.53307 7.06011 7.40723 7.4634C7.28052 7.85408 7.08547 8.21969 6.83097 8.54354C6.60145 8.79792 6.31244 8.99271 5.98924 9.11086C6.47568 9.26858 6.91279 9.54788 7.25831 9.92176C7.72231 10.4654 8.109 11.0693 8.4076 11.7167L9.88063 14.6878Z" fill="#0F0F0E"/>
<path d="M24.2127 3.93115V14.6877H21.0562V8.76774L16.99 14.6877H13.8206V3.93115H16.9868V9.88314L21.0724 3.93115H24.2127Z" fill="#0F0F0E"/>
<path d="M32.5652 8.07543H34.3588C36.0034 8.07543 37.2239 8.36282 38.0203 8.93762C38.8167 9.51241 39.2138 10.4066 39.2117 11.6203C39.2345 12.0605 39.1458 12.4992 38.9535 12.8967C38.7613 13.2942 38.4716 13.6377 38.1109 13.896C37.3836 14.4216 36.3379 14.6845 34.9739 14.6845H29.208V3.93115H38.3537V6.11066H32.5652V8.07543ZM32.5652 12.3768H34.2843C35.3375 12.3768 35.8631 11.9996 35.8609 11.2453C35.8609 10.5851 35.3354 10.2549 34.2843 10.2549H32.5652V12.3768Z" fill="#0F0F0E"/>
<path d="M43.7246 3.93115H52.7214V6.22605H47.0883V7.9376H52.3135V10.1299H47.0883V12.2518H52.8865V14.6877H43.7246V3.93115Z" fill="#0F0F0E"/>
<path d="M57.4126 3.93115H62.9972C64.2123 3.93115 65.122 4.21748 65.7263 4.79014C66.3306 5.36279 66.6339 6.1769 66.636 7.23247C66.6631 7.70201 66.5888 8.17187 66.418 8.61071C66.2471 9.04955 65.9838 9.44728 65.6454 9.77737C64.9828 10.3863 63.9749 10.6908 62.6216 10.6908H60.786V14.6877H57.4126V3.93115ZM60.786 8.51774H61.6083C62.2558 8.51774 62.709 8.40556 62.9713 8.19722C63.0976 8.0938 63.1984 7.9633 63.2663 7.8156C63.3342 7.6679 63.3672 7.50686 63.363 7.34465C63.3668 7.18629 63.3387 7.02877 63.2803 6.88129C63.222 6.7338 63.1345 6.59931 63.0231 6.48567C62.7964 6.25169 62.3756 6.1331 61.7281 6.1331H60.7731L60.786 8.51774Z" fill="#0F0F0E"/>
<path d="M77.1996 11.6878H72.3014L71.1877 14.6878H70.2327L74.328 4.005H75.1956L79.2813 14.6878H78.3327L77.1996 11.6878ZM72.583 10.925H76.918L74.7521 5.10438L72.583 10.925Z" fill="#0F0F0E"/>
<path d="M89.9518 4.76783H86.2546V14.6878H85.3352V4.76783H81.6445V4.005H89.9453L89.9518 4.76783Z" fill="#0F0F0E"/>
<path d="M100.386 9.56596H95.339V13.925H101.144V14.6878H94.426V4.005H101.105V4.76783H95.339V8.80313H100.386V9.56596Z" fill="#0F0F0E"/>
<path d="M113.701 4.005V14.6878H112.792V4.76783H108.233L107.997 9.18775C107.956 10.3491 107.803 11.5039 107.541 12.6365C107.41 13.2283 107.106 13.7689 106.667 14.191C106.23 14.5333 105.685 14.7095 105.129 14.6878H104.727V13.9314H105.022C105.237 13.9356 105.45 13.8953 105.648 13.8131C105.846 13.7308 106.024 13.6084 106.171 13.4538C106.486 13.0329 106.691 12.5421 106.77 12.0243C106.947 11.0156 107.056 9.99617 107.094 8.97301L107.359 4.01142L113.701 4.005Z" fill="#0F0F0E"/>
<path d="M120.053 8.64288H122.728C123.384 8.6259 124.037 8.74944 124.641 9.00506C125.149 9.22212 125.579 9.58638 125.874 10.0499C126.168 10.5331 126.316 11.089 126.302 11.6525C126.32 12.0724 126.243 12.491 126.075 12.8768C125.906 13.2626 125.652 13.6057 125.33 13.8801C124.683 14.4218 123.812 14.691 122.685 14.691H119.124V4.005H120.037L120.053 8.64288ZM120.053 9.4057V13.925H122.721C123.422 13.9633 124.114 13.7454 124.664 13.3128C124.899 13.1019 125.085 12.8419 125.207 12.5515C125.329 12.2611 125.384 11.9475 125.369 11.6333C125.381 11.3329 125.326 11.0336 125.208 10.7566C125.09 10.4797 124.912 10.2318 124.686 10.0307C124.146 9.60315 123.467 9.38547 122.776 9.41852L120.053 9.4057Z" fill="#0F0F0E"/>
<path d="M137.173 9.56596H132.123V13.925H137.927V14.6878H131.213V4.005H137.892V4.76783H132.123V8.80313H137.173V9.56596Z" fill="#0F0F0E"/>
<path d="M150.001 6.01562L147.228 15H144.282L148.462 3.625H150.329L150.001 6.01562ZM152.298 15L149.517 6.01562L149.157 3.625H151.048L155.251 15H152.298ZM152.189 10.7578V12.875H146.353V10.7578H152.189ZM156.087 3.625H160.564C161.439 3.625 162.199 3.75521 162.845 4.01562C163.491 4.27604 163.988 4.66146 164.337 5.17188C164.691 5.68229 164.868 6.3125 164.868 7.0625C164.868 7.71354 164.767 8.25781 164.564 8.69531C164.361 9.13281 164.077 9.49479 163.712 9.78125C163.353 10.0625 162.934 10.2943 162.454 10.4766L161.556 10.9844H157.798L157.782 8.86719H160.564C160.913 8.86719 161.202 8.80469 161.431 8.67969C161.66 8.55469 161.832 8.3776 161.947 8.14844C162.066 7.91406 162.126 7.63542 162.126 7.3125C162.126 6.98438 162.066 6.70312 161.947 6.46875C161.827 6.23438 161.65 6.05469 161.415 5.92969C161.186 5.80469 160.902 5.74219 160.564 5.74219H158.829V15H156.087V3.625ZM162.314 15L159.798 9.96875L162.704 9.95312L165.251 14.8828V15H162.314Z" fill="#0F0F0E"/>
</svg>
