<svg width="264" height="34" viewBox="0 0 264 34" fill="none" xmlns="http://www.w3.org/2000/svg">
<path d="M27.4379 12.3704L25.1777 18.8106H29.7101L27.4978 12.3704H27.4379Z" fill="white"/>
<path d="M39.3179 7.40479L21.2842 1.5813C21.2842 1.5813 3.31037 6.69711 1.99658 7.40479L4.19688 17.0434L1.99658 26.6425L21.2842 32.466L39.3179 26.6425L37.0257 17.1541L39.3179 7.40479ZM20.4496 24.3811H17.9697L12.2873 17.5969H10.9535V24.3811H8.90098V9.35781H10.9535V15.9997H12.0836L17.7022 9.36967H20.0143L20.0343 9.42107L13.8886 16.5373L20.4735 24.3257L20.4496 24.3811ZM31.6308 24.3811L30.301 20.5146H24.5866L23.2329 24.3811H21.1364L26.6072 9.35781H28.3523L33.7033 24.3811H31.6308Z" fill="white"/>
<path d="M78.2405 23.8836H73.5763L71.979 20.4559C71.7547 19.9147 71.452 19.4086 71.0805 18.9536C70.8387 18.7404 70.5213 18.6309 70.198 18.6492V23.8836H66.053V10.6157H70.186V15.7117C70.3468 15.7087 70.505 15.6719 70.6503 15.6038C70.7955 15.5356 70.9245 15.4377 71.0286 15.3164C71.4233 14.68 71.7397 13.9991 71.971 13.2883C72.1807 12.6465 72.4994 12.0448 72.9134 11.5092C73.3295 11.0903 73.8693 10.8134 74.4549 10.7185C75.5637 10.5308 76.6887 10.4526 77.8132 10.4852V13.2883H77.6016C77.0476 13.2461 76.4949 13.385 76.0282 13.6836C75.6349 14.0292 75.3448 14.475 75.1896 14.9724C75.0333 15.4543 74.7927 15.9053 74.4788 16.3048C74.1957 16.6185 73.8392 16.8588 73.4406 17.0045C74.0406 17.1991 74.5797 17.5436 75.0059 18.0048C75.5783 18.6753 76.0552 19.4202 76.4235 20.2187L78.2405 23.8836Z" fill="white"/>
<path d="M95.9188 10.6157V23.8836H92.0253V16.5815L87.0098 23.8836H83.1003V10.6157H87.0058V17.9574L92.0453 10.6157H95.9188Z" fill="white"/>
<path d="M106.221 15.7276H108.434C110.462 15.7276 111.968 16.0821 112.95 16.7911C113.932 17.5001 114.422 18.6031 114.42 20.1001C114.448 20.643 114.338 21.1843 114.101 21.6745C113.864 22.1648 113.507 22.5885 113.062 22.9071C112.165 23.5555 110.875 23.8797 109.192 23.8797H102.08V10.6157H113.361V13.3041H106.221V15.7276ZM106.221 21.0332H108.342C109.641 21.0332 110.289 20.568 110.287 19.6376C110.287 18.8232 109.638 18.416 108.342 18.416H106.221V21.0332Z" fill="white"/>
<path d="M119.986 10.6157H131.084V13.4464H124.135V15.5576H130.581V18.2618H124.135V20.879H131.287V23.8836H119.986V10.6157Z" fill="white"/>
<path d="M136.87 10.6157H143.758C145.257 10.6157 146.379 10.9689 147.125 11.6753C147.87 12.3816 148.244 13.3858 148.247 14.6878C148.28 15.267 148.188 15.8465 147.978 16.3878C147.767 16.9291 147.442 17.4197 147.025 17.8269C146.208 18.578 144.964 18.9536 143.295 18.9536H141.031V23.8836H136.87V10.6157ZM141.031 16.2732H142.045C142.844 16.2732 143.403 16.1348 143.726 15.8778C143.882 15.7502 144.007 15.5893 144.09 15.4071C144.174 15.2249 144.215 15.0263 144.21 14.8262C144.214 14.6309 144.18 14.4366 144.108 14.2546C144.036 14.0727 143.928 13.9068 143.79 13.7667C143.511 13.478 142.992 13.3318 142.193 13.3318H141.015L141.031 16.2732Z" fill="white"/>
<path d="M161.277 20.1831H155.235L153.861 23.8835H152.683L157.735 10.7065H158.805L163.845 23.8835H162.675L161.277 20.1831ZM155.582 19.2421H160.929L158.258 12.0626L155.582 19.2421Z" fill="white"/>
<path d="M177.007 11.6475H172.446V23.8835H171.312V11.6475H166.76V10.7065H176.999L177.007 11.6475Z" fill="white"/>
<path d="M189.877 17.5658H183.652V22.9426H190.811V23.8835H182.525V10.7065H190.764V11.6475H183.652V16.6249H189.877V17.5658Z" fill="white"/>
<path d="M206.301 10.7065V23.8835H205.179V11.6475H199.557L199.265 17.0993C199.214 18.5318 199.026 19.9562 198.702 21.3533C198.54 22.0833 198.165 22.7501 197.624 23.2707C197.086 23.6929 196.413 23.9103 195.727 23.8835H195.232V22.9505H195.595C195.86 22.9557 196.123 22.906 196.367 22.8045C196.611 22.7031 196.831 22.5521 197.013 22.3614C197.401 21.8422 197.655 21.2368 197.752 20.5982C197.97 19.3539 198.104 18.0965 198.151 16.8345L198.478 10.7145L206.301 10.7065Z" fill="white"/>
<path d="M214.136 16.4272H217.435C218.245 16.4063 219.049 16.5587 219.795 16.874C220.421 17.1417 220.952 17.591 221.316 18.1628C221.678 18.7588 221.861 19.4445 221.843 20.1396C221.866 20.6574 221.771 21.1738 221.563 21.6497C221.356 22.1256 221.042 22.5487 220.645 22.8872C219.846 23.5554 218.772 23.8875 217.383 23.8875H212.99V10.7065H214.116L214.136 16.4272ZM214.136 17.3682V22.9426H217.427C218.292 22.9898 219.144 22.7211 219.823 22.1875C220.113 21.9273 220.342 21.6066 220.493 21.2484C220.643 20.8902 220.712 20.5034 220.693 20.1158C220.708 19.7453 220.64 19.3761 220.494 19.0345C220.349 18.6929 220.129 18.3872 219.85 18.1391C219.184 17.6117 218.346 17.3432 217.494 17.384L214.136 17.3682Z" fill="white"/>
<path d="M235.253 17.5658H229.023V22.9426H236.183V23.8835H227.901V10.7065H236.139V11.6475H229.023V16.6249H235.253V17.5658Z" fill="white"/>
<path d="M246.398 13.8926L243.278 24H239.965L244.667 11.2031H246.768L246.398 13.8926ZM248.982 24L245.854 13.8926L245.449 11.2031H247.576L252.305 24H248.982ZM248.859 19.2275V21.6094H242.294V19.2275H248.859ZM253.245 11.2031H258.281C259.266 11.2031 260.121 11.3496 260.848 11.6426C261.574 11.9355 262.134 12.3691 262.526 12.9434C262.925 13.5176 263.124 14.2266 263.124 15.0703C263.124 15.8027 263.01 16.415 262.781 16.9072C262.553 17.3994 262.233 17.8066 261.823 18.1289C261.419 18.4453 260.947 18.7061 260.408 18.9111L259.397 19.4824H255.17L255.152 17.1006H258.281C258.674 17.1006 258.999 17.0303 259.257 16.8896C259.515 16.749 259.708 16.5498 259.837 16.292C259.972 16.0283 260.039 15.7148 260.039 15.3516C260.039 14.9824 259.972 14.666 259.837 14.4023C259.702 14.1387 259.503 13.9365 259.239 13.7959C258.981 13.6553 258.662 13.585 258.281 13.585H256.33V24H253.245V11.2031ZM260.25 24L257.42 18.3398L260.689 18.3223L263.555 23.8682V24H260.25Z" fill="white"/>
</svg>
